<svg width="100%" xmlns="http://www.w3.org/2000/svg" viewBox="0 0 512 512">
    <path fill="#009B3A" fill-rule="nonzero"
        d="M256 39.59c119.52 0 216.41 96.89 216.41 216.4 0 119.52-96.89 216.42-216.41 216.42-119.51 0-216.4-96.9-216.4-216.42 0-119.51 96.89-216.4 216.4-216.4z" />
    <path fill="#FEDF00" fill-rule="nonzero"
        d="m58.46 257.21 196.67 125.54 196.66-125.54-196.66-125.52z" />
    <path fill="#002776" fill-rule="nonzero"
        d="M255.13 174.29c45.8 0 82.92 37.12 82.92 82.92 0 45.8-37.12 82.94-82.92 82.94-45.8 0-82.93-37.14-82.93-82.94s37.13-82.92 82.93-82.92z" />
    <path fill="#fff" fill-rule="nonzero"
        d="M179.28 223.72c9.26-1.35 18.76-2.03 28.46-2.03 49.32 0 94.44 17.77 129.47 47.15-.58 4.54-1.6 8.91-2.94 13.13-33.51-30.14-77.89-48.5-126.53-48.5-11.2 0-22.24 1.02-32.93 2.87 1.17-4.37 2.69-8.58 4.47-12.62z" />
</svg>