<svg width="100%" xmlns="http://www.w3.org/2000/svg" viewBox="0 0 512 512">
    <g fill-rule="nonzero">
        <path fill="#FEFEFE"
            d="M256 39.59c119.52 0 216.41 96.89 216.41 216.4 0 119.52-96.89 216.42-216.41 216.42-119.51 0-216.4-96.9-216.4-216.42 0-119.51 96.89-216.4 216.4-216.4z" />
        <path fill="#012169"
            d="M183.49 179.55V52.05c-41.32 14.7-76.85 41.61-102.27 76.35l102.27 51.15zm0 152.9v127.5c-41.3-14.7-76.82-41.59-102.26-76.35l102.26-51.15zm144.55 0v127.67c41.45-14.63 77.09-41.54 102.61-76.34l-102.61-51.33zm0-152.9V51.88c41.45 14.63 77.11 41.54 102.62 76.35l-102.62 51.32z" />
        <path fill="#C8102E"
            d="M448.3 328.16h-48.11l49.35 24.72c3.21-6.41 6.11-13 8.69-19.75l-9.93-4.97zm-9.34-187.76-86.42 43.33h48.11l48.95-24.5c-3.23-6.46-6.79-12.75-10.64-18.83zM212.41 299.26v168.75c14.08 2.87 28.66 4.4 43.59 4.4 14.76 0 29.19-1.49 43.13-4.3V299.26h168.94c2.83-13.98 4.34-28.44 4.34-43.27 0-14.88-1.51-29.42-4.37-43.47H299.13V43.9A217.404 217.404 0 0 0 256 39.59c-14.93 0-29.51 1.54-43.59 4.4v168.53H43.97a217.777 217.777 0 0 0-4.37 43.47c0 14.83 1.51 29.29 4.34 43.27h168.47zM63.12 183.84h48.11l-48.89-24.48c-3.2 6.41-6.11 13.02-8.68 19.76l9.46 4.72zm95.87 144.43h-48.11l-48.57 24.31A216.76 216.76 0 0 0 73 371.52l86.43-43.25h-.44z" />
    </g>
</svg>